<?xml version="1.0" encoding="UTF-8"?>
<svg id="Capa_2" data-name="Capa 2" xmlns="http://www.w3.org/2000/svg" viewBox="0 0 571.88 571.94">
  <defs>
    <style>
      .cls-1 {
        fill: #bca96c;
      }
    </style>
  </defs>
  <g id="Capa_1-2" data-name="Capa 1">
    <g>
      <path d="M269.63.45c230.16-12.54,381.52,240.9,258.19,437.62-111.89,178.49-372.12,178.51-484.02,0C-71.67,253.88,54.15,12.19,269.63.45Z"/>
      <path class="cls-1" d="M241.11,70.92c1.42.87,5.2,0,7.69,1.8,8.97,6.5,18.13,25.39,22.26,35.7,1.63,4.07,6.23,21.73,8.75,23.31,6.62-1.8,10.45-1.98,16.97.43l7.48-23.02c5.64-9.64,12.8-30.99,23.16-36.8,2.24-1.26,4.8-.61,6.54-1.22,1.16-.41,1.22-2.18,2.35-2.84,3.4-2,7.53-2.38,11.39-2.12-1.46,1.88-4.24,4.01-6.28,5.2-3.75,2.19-11.64,4.36-14.65,6.33-.93.61-7.02,11.06-8.16,12.83-6.84,10.62-14.98,30.48-17.79,43.19-.58,2.61,3.19-.42,5.43-.58,11.54-.86,20.31,8.98,14.4,19.94-1.55,1.12-7.72-2.8-8.88.07,12.37,2.25,22.93,26.93,19.77,37.32-.88,2.91-5.57,3.23-6.79,5.68,8.86-2.16,18.29-2.67,27.44-1.98,24.5,1.86,90.17,37.5,106.36,56.46,8.14,9.54,18.13,29.7,14.29,42.36-2.82,9.29-12.56,5.27-19.07,3.43-20.23-5.72-39.6-15.61-59.32-21.58-.93-.28-3.98-1.69-3.8.3,29.84,16.47,79.17,36.4,94.32,69.03,10.4,22.39,2.18,23.04-18.1,25.84-15.82,2.18-32.87,2.74-48.77,1.13-9.59-.97-19.83-4.41-28.92-5.03-13.77-.93-28.91,3.61-42.83,2.9l-1.61-1.36,1.65-1.32,33.26-4.17c-5.17.37-13.47-6.77-17.43-6.89-2.98-.09-17.07,5.39-18.51,3.87v-2.99s13.97-3.99,13.97-3.99c-13.12-6.01-22.38-17.13-32.44-26.99-4.15,3.3-.14,8.09.39,12.59.31,2.64.48,7.31.06,9.84-.91,5.41-7.65,9.11-8.7,14.28-2.37,11.68,2.47,20.92-6.22,32.77-3.95,5.39-16.78,14.35-23.46,14.37-8.12.03-22.3-11.7-25.65-19.17-5.07-11.33-1.49-21.63-4-29.99-.51-1.69-5.37-5.98-6.63-8.36-2.09-3.96-2.5-7.27-2.05-11.73.52-5.11,5.56-11.06.37-14.6l-15.45,15.5-16.98,11.99c.92.51,18.18,3.82,14.97,6.49-6.02,1.36-14.12-4.31-19.41-3.95-4.23.29-12.14,7.26-17.52,6.97l9.48,1.98c6.4.69,17.28.12,22.9,2.06,1.63.56,2.91.73,2.54,2.94-14.49.74-30.13-4.06-44.46-3.03-9.14.66-19.42,4.05-28.93,5.02-17.91,1.83-37.89,1.03-55.58-2.3-13.16-2.48-18.39-2.1-14.09-17.49,10.04-35.94,66.83-60.11,97.13-76.21l-3.04-.54c-20.22,6.63-40.34,16.55-60.85,22.05-7.88,2.12-16.88,4.98-18.72-6.23-2.58-15.76,11.24-37.71,22.82-47.66,18.09-15.56,76.25-46.81,99.25-48.59,8.8-.68,17.71.3,26.44.98-1.71-2.55-5.18-1.52-5.96-5.51-2.09-10.64,7.9-33.84,19.93-36.49-1.15-2.87-7.36,1.04-8.9-.06-5.27-10.71,2.78-21.11,14.42-19.96,2.27.22,3.57,1.41,5.49,1.52-1.36-3.37-1.19-7.36-2.27-10.73-.44-1.38-1.99-2.18-2.47-3.52-5.53-15.36-10.34-29.7-21.25-42.71l-20.93-10.54c.75-2.06,6.42-.94,8.04-.55,4.52,1.08,3.99,3.62,5.16,4.33ZM265.84,135.16c-6.58.15-14.49,7.45-9.47,13.99.85-3.35.96-7.54,3.44-10.27,1.77-1.94,5.09-1.53,6.03-3.72ZM317.77,149.15c5.32-3.74-.44-13.18-5.99-12.99-.12,1.58,2.05,1.2,3.03,2.45,2.43,3.09,3.4,6.61,2.97,10.54ZM315.77,192.15c8.17-8.48-.92-30.23-12.98-30.99l7.01,5.46c5.75,6.51,6.24,17.21,5.97,25.53ZM269.84,162.16c-11.03,2.15-17.83,20.99-11.48,29.99.7-11.37,1.26-22.99,11.48-29.99ZM288.81,216.15v-31.5c0-.6-1.39-2.25-1.01-3.49h-.99s0,34.99,0,34.99l-9.98-2.99c1.95,4.57,6.54,4.09,9.98,6.49v43.5c1.76.22.95-2.26,1-3.49.57-13.78.28-27.69,1.04-41.47,3.65.24,11.31-3.41,10.45-7.03-2.66,2.96-6.35,5.34-10.49,5ZM232.57,199.53c-25.3.15-52.74,14.04-74.57,26.1-17.55,9.7-43.76,25.74-50.17,45.74-8.95,27.88,4.3,23.26,23.76,16.8,36.9-12.25,81.39-29.39,117.27-44.54,15.99-6.75,22.94-9.34,13.71-27.7-6.47-12.87-16.02-16.49-30-16.41ZM454.18,251.5c-16.74-17-70.94-45.82-94.27-50.08-17.55-3.2-36.78-4.48-46.57,12.81s-6.15,20.95,10.43,28.39c42.61,19.1,91.61,33.41,135.35,50.42,12.66,2.61,11.03-9.31,8.91-17.92s-7.83-17.49-13.86-23.62ZM264.84,243.15l-52.59,19.82c-27.74,19.26-60.67,31.07-87.89,50.96-15.44,11.28-34.02,27.43-34.09,48.09,58.07,13.78,126.23,4.64,161.62-48.34,15.01-22.46,22.13-43.68,12.94-70.53ZM484.35,362.02c.42-20.54-18.9-37.05-34.09-48.09-27.32-19.86-60.17-31.56-87.89-50.96l-52.59-19.82c-5.87,20.26-5.72,35.03,3.44,54.04,28.82,59.8,90.38,76.88,152.65,68.81,2.42-.31,17.88-3.07,18.48-3.99ZM265.97,297.27l-13.99,23.59c-.65,2.45,3.3,4.18,3.41,7.78.13,4.23-3.6,10-3.07,15.57.76,8.05,8.11,10.78,9.31,16.67,2.09,10.29-1.95,18.66,4.19,29.8,2.91,5.28,16.68,15.71,22.33,15.24,4.93-.41,16.46-8.19,19.61-12.3,8.78-11.43,3.9-21.22,6.24-32.74,1.07-5.29,7.43-8.15,8.53-13.46,2.12-10.27-6.37-17.74.98-24.76l-16.21-26.38c-12.97,6.36-27.79,4.15-41.33.99Z"/>
      <path class="cls-1" d="M285.81,433.65l1.5-1.48c.47.64,2.5,2.17,2.5,2.48v72l-1.51,1.49-2.48-1.49v-73Z"/>
      <path class="cls-1" d="M399.35,443.4c2.06,2.03.62,4.95-2.44,2.97l-60.02-38.38-.17-3.83,62.62,39.24Z"/>
      <polygon class="cls-1" points="175 447.15 177.04 442.7 235.89 404.63 238.88 405.67 175 447.15"/>
      <path class="cls-1" d="M417.59,406.15c-1.76.13-3.48.01-5.23-.25-17.38-2.67-49.13-10.5-65.86-16.06-5.04-1.68-3.05-3.77,1.23-3.28,15.85,1.81,42.33,9.94,58.7,14.28.91.24,14.12,2.86,11.16,5.31Z"/>
      <polygon class="cls-1" points="230.9 386.16 230.32 389.25 158.02 406.15 158.02 403.16 230.9 386.16"/>
      <polygon class="cls-1" points="370.66 479.15 366.66 477.67 323.24 422.16 324.26 419.16 370.66 479.15"/>
      <path class="cls-1" d="M268.83,429.16l-24.45,71.98c-1.91-1.31-1.56-2.26-1.29-4.24.57-4.16,4.24-12.67,5.76-17.25,4.35-13.13,10.67-36.05,16.49-47.49.79-1.56,1.24-3.37,3.49-2.99Z"/>
      <path class="cls-1" d="M203.95,479.15l46.42-59.97c2.49,1.72,1.16,3.01-.07,4.91-11.6,17.92-29.83,35-41.82,53.1l-4.52,1.96Z"/>
      <path class="cls-1" d="M308.68,429.24c5.96,22.46,18.01,45.8,23.35,68.14.25,1.05,1.09,3.84-.79,3.75-1.65-.07-4.53-8.86-5.24-10.73-6-15.8-16.48-42.31-19.99-57.98-.71-3.16-.65-3.79,2.67-3.18Z"/>
      <path class="cls-1" d="M353.69,168.15l4.57.93c2.85,7.5-5.21,9.52-9.56,13.56-2.2,2.04-12.18,15.6-13.76,7.88-1.45-7.07,14.48-12.67,16.52-18.99-.9-6.53-.65-11.93-3.57-18.06-1.43-3-4.53-5.41-5.12-8.87-.53-3.09-.32-16.31,5.52-11.53,4.35,3.56,8.39,29.03,5.4,35.08Z"/>
      <path class="cls-1" d="M238.88,193.15c-2.4,1.68-11.7-9.46-13.95-11.51-3.1-2.82-8.46-4.13-8.98-9.08s2.1-5.36,5.97-3.41c-4.78-11.98-.45-26.2,5.6-36.94l2.91.93c5.92,10.28-2.76,16.6-5.22,24.79-1.35,4.51-1.34,8.76-1.76,13.35,3.8,8.53,19.2,10.94,15.45,21.86Z"/>
      <path class="cls-1" d="M344.69,131.14h-1.98c2.92-10.65,11.95-14.91,13.9-26.57.61-3.63-.65-7.7,1.13-11.39l6.92,1.48c2.94,2.09-2.38,7.12-3.4,9.57-3.96,9.57-4.05,13.27-11.54,21.44-1.82,1.99-4.73,2.6-5.04,5.46Z"/>
      <path class="cls-1" d="M231.89,132.15l-7-6.47c-7.2-7.95-7.81-13.08-11.74-22.24-1.85-4.3-9.24-9.19,1.57-10.09,5.13-.43,2.71,6.5,3.28,10.23,1.82,11.72,6.82,12.87,11.75,21.23,1.24,2.1,2.06,4.89,2.14,7.35Z"/>
      <polygon class="cls-1" points="232.41 395.18 233.9 397.64 185.02 419.72 181.99 418.64 184.27 415.95 232.41 395.18"/>
      <path class="cls-1" d="M229.9,379.15l-56.9,4,2.53-2.96c16.24-.66,32.67-3.62,48.87-4.11,2.49-.08,5.72-.31,5.5,3.07Z"/>
      <path class="cls-1" d="M201.96,451.15l39.91-38.51c.9-1.26,2.86.33,3,1.03.53,2.6-34.71,31.22-38.38,36.54l-4.54.94Z"/>
      <path class="cls-1" d="M391.49,416.29l.14,2.86c-1.4.19-2.67-.07-4.02-.47-10.36-3.05-33.2-13.49-43.27-18.66-1.24-.63-3.91-1.49-3.62-3.36.38-2.41,3.85-.36,4.95.02,15.27,5.38,30.4,14.23,45.81,19.6Z"/>
      <path class="cls-1" d="M259.85,425.16c1.92,1.84-22.31,41.82-24.09,47.36l-3.85,1.63c-.3-1.71.47-2.93,1.1-4.39,6.23-14.37,17.19-28.78,23.58-43.36-.07-1.77,3.01-1.48,3.26-1.25Z"/>
      <path class="cls-1" d="M399.63,380.16v2.99c-16.07-1.15-32.33-1.67-48.42-3-3.18-.26-6.59-.48-5.5-3.99l53.92,4Z"/>
      <path class="cls-1" d="M314.77,425.16l3.85,1.63c5.66,14.46,18.06,29.4,23.57,43.4.8,2.03.85,2.57-.97,3.94l-26.45-48.97Z"/>
      <path class="cls-1" d="M330.74,412.16c.62-.73,7.55,5.23,8.45,6.02,3.86,3.39,7.7,7,11.52,10.46,2.82,2.56,21.25,19.39,20.95,21-.56,2.97-5.55-1.76-6.46-2.51-11.38-9.47-21.59-21.42-33.45-30.49l-1.01-4.48Z"/>
      <path class="cls-1" d="M304.79,486.15c-1.56-16.56-7.37-34.61-8.53-50.98-.39-5.5,1.97-4.68,3.45-.44l7.96,49.75-2.88,1.67Z"/>
      <path class="cls-1" d="M278.82,432.15c-3.19,16.09-3.98,34.8-7.97,50.51-1.32,5.19-3.81,4.83-3.37-.32,1.41-16.15,6.4-33.3,8.33-49.53l3.01-.67Z"/>
      <path class="cls-1" d="M410.6,427.15l-15.38-4.91-.59-3.08c1.36-1.39,18.7,5.57,15.96,7.99Z"/>
      <path class="cls-1" d="M405.2,380.2c2.75,1.79,16.27-.7,15.38,3.44-3.69,2.95-10.46-.58-15.31.36l-1.65-1.36,1.58-2.44Z"/>
      <path class="cls-1" d="M386.64,464.15c-1.32,1.32-14.29-8.33-12.97-11.99,1.42-1.42,9.94,6.76,11.32,8.15.86.87,2.89,2.59,1.65,3.84Z"/>
      <path class="cls-1" d="M344.21,476.17c1.33.07,7.07,10.39,7.71,12.27s1.39,2.16-.72,3.69c-1.33-.07-7.07-10.39-7.71-12.27s-1.39-2.16.72-3.69Z"/>
      <path class="cls-1" d="M266.82,506.15h-2.97c-.68-.65,1.58-15.15,3.49-16.98,3.52.03-.41,14.8-.52,16.98Z"/>
      <polygon class="cls-1" points="229.42 477.16 231.79 479.51 224.41 492.13 222.32 489.1 229.42 477.16"/>
      <path class="cls-1" d="M310.76,506.15c-3.05.34-3-2.92-3.52-4.96-.78-3.07-2.59-9.75.03-12.01,2.17.05,3.88,14.43,3.49,16.97Z"/>
      <path class="cls-1" d="M165.02,427.15c-.2-.21-.33-2.3.62-3.07.44-.35,9.51-4.29,10.32-4.5,1.79-.46,1.83-.43,3.04,1.08.54,2.54-13.07,7.39-13.97,6.48Z"/>
      <path class="cls-1" d="M172,381.16c.31,1.91-.78,2.69-2.49,2.99-1.63.28-13.5,1.66-13.45-.5,3.58-4.61,10.76-1.77,15.95-2.49Z"/>
      <path class="cls-1" d="M199.95,453.16c2.22,2.22-10.06,12.81-11.97,10.99-.43-1.88,1.06-2.37,1.99-3.5,1.18-1.43,8.27-9.2,9.98-7.49Z"/>
      <path class="cls-1" d="M351.71,206.15l-1.02-1.98c11.51-.19,21.82,5.34,31.48,10.98,4.01-.15-3.99-3.8-3.51-4.49.36-1.18,2.15-.31,3-.01,8.84,3.12,23.94,11.57,32.6,16.34,21.93,12.09,50.72,27.86,53.12,55.8,1.08,12.55-7.59,8.37-15.81,5.84-24.63-7.58-50.41-19.84-74.66-29.21-15.86-6.13-32.89-11.08-48.43-17.48-16.04-6.61-22.8-9.58-10.91-27.46,7.49-11.27,22.23-12.26,34.15-8.31ZM415.59,257.17l-81.85-31,29.68,14.76c15.89,4.76,32.85,13.49,48.92,17,1,.22,3.5,1.01,3.25-.76ZM462.51,283.15c1.21-12.9-7.7-24.58-16.95-32.51-3.27-2.8-7.84-6.41-11.99-7.48l19.78,21.68,9.16,18.31Z"/>
      <path class="cls-1" d="M224.91,204.16l-1.48,2.01c17.95-5.85,33.38.38,39.14,18.76,3.71,11.84-6.31,13.25-15.44,16.97-13.21,5.39-27.1,9.37-40.43,14.5-26.88,10.35-56.91,24.88-84.08,32.78-10.9,3.17-16.12,4.55-14.25-9.28,3.47-25.65,30.54-40.57,50.98-51.93,4.28-2.38,35.94-19.07,37.61-17.82l-2.52,3.98c9.26-5.57,19.46-9.98,30.46-9.98ZM240.88,226.16l-4.53.95-79.32,32.03,57.88-19.51,25.97-13.47ZM143.05,242.16c-15.06,7.15-31.11,21.98-30.94,39.99,3.75-4.07,5.21-10.34,8.17-15.3,5.78-9.68,14.73-16.99,22.76-24.69Z"/>
    </g>
  </g>
</svg>